<svg width="30" height="30" viewBox="0 0 30 30" fill="none" xmlns="http://www.w3.org/2000/svg">
<path d="M0.9375 18.5625C1.18614 18.5625 1.4246 18.6613 1.60041 18.8371C1.77623 19.0129 1.875 19.2514 1.875 19.5V24.1875C1.875 24.6848 2.07254 25.1617 2.42417 25.5133C2.77581 25.865 3.25272 26.0625 3.75 26.0625H26.25C26.7473 26.0625 27.2242 25.865 27.5758 25.5133C27.9275 25.1617 28.125 24.6848 28.125 24.1875V19.5C28.125 19.2514 28.2238 19.0129 28.3996 18.8371C28.5754 18.6613 28.8139 18.5625 29.0625 18.5625C29.3111 18.5625 29.5496 18.6613 29.7254 18.8371C29.9012 19.0129 30 19.2514 30 19.5V24.1875C30 25.1821 29.6049 26.1359 28.9016 26.8392C28.1984 27.5424 27.2446 27.9375 26.25 27.9375H3.75C2.75544 27.9375 1.80161 27.5424 1.09835 26.8392C0.395088 26.1359 0 25.1821 0 24.1875V19.5C0 19.2514 0.0987721 19.0129 0.274587 18.8371C0.450403 18.6613 0.68886 18.5625 0.9375 18.5625Z" fill="#465461"/>
<path d="M14.3363 22.2262C14.4233 22.3136 14.5268 22.3828 14.6407 22.4301C14.7546 22.4773 14.8767 22.5017 15 22.5017C15.1233 22.5017 15.2454 22.4773 15.3593 22.4301C15.4732 22.3828 15.5767 22.3136 15.6638 22.2262L21.2888 16.6012C21.4648 16.4252 21.5637 16.1865 21.5637 15.9375C21.5637 15.6885 21.4648 15.4498 21.2888 15.2737C21.1127 15.0977 20.874 14.9988 20.625 14.9988C20.376 14.9988 20.1373 15.0977 19.9613 15.2737L15.9375 19.2994V2.8125C15.9375 2.56386 15.8387 2.3254 15.6629 2.14959C15.4871 1.97377 15.2486 1.875 15 1.875C14.7514 1.875 14.5129 1.97377 14.3371 2.14959C14.1613 2.3254 14.0625 2.56386 14.0625 2.8125V19.2994L10.0388 15.2737C9.86271 15.0977 9.62396 14.9988 9.375 14.9988C9.12605 14.9988 8.88729 15.0977 8.71125 15.2737C8.53521 15.4498 8.43632 15.6885 8.43632 15.9375C8.43632 16.1865 8.53521 16.4252 8.71125 16.6012L14.3363 22.2262Z" fill="#465461"/>
</svg>
