<svg width="30" height="30" viewBox="0 0 30 30" fill="none" xmlns="http://www.w3.org/2000/svg">
<g clip-path="url(#clip0_29_106)">
<path d="M0 2.14052C0 0.95819 0.98625 0 2.20312 0H27.7969C29.0137 0 30 0.95819 30 2.14052V27.7445C30 28.9268 29.0137 29.8851 27.7969 29.8851H2.20312C0.98625 29.8851 0 28.9268 0 27.7445V2.14052ZM9.26812 25.0175V11.5226H4.76625V25.0175H9.26812ZM7.01813 9.67902C8.5875 9.67902 9.56437 8.64425 9.56437 7.34799C9.53625 6.02371 8.58938 5.01695 7.04813 5.01695C5.50688 5.01695 4.5 6.02557 4.5 7.34799C4.5 8.64425 5.47688 9.67902 6.98812 9.67902H7.01813ZM16.2206 25.0175V17.4809C16.2206 17.0774 16.2506 16.674 16.3706 16.3863C16.695 15.5813 17.4356 14.7464 18.6806 14.7464C20.31 14.7464 20.9606 15.9829 20.9606 17.7984V25.0175H25.4625V17.2773C25.4625 13.1308 23.2425 11.2031 20.28 11.2031C17.8912 11.2031 16.8206 12.5106 16.2206 13.4315V13.4782H16.1906L16.2206 13.4315V11.5226H11.7206C11.7769 12.7889 11.7206 25.0175 11.7206 25.0175H16.2206Z" fill="#465461"/>
</g>
<defs>
<clipPath id="clip0_29_106">
<rect width="30" height="30" fill="white"/>
</clipPath>
</defs>
</svg>
