<svg width="30" height="30" viewBox="0 0 30 30" fill="none" xmlns="http://www.w3.org/2000/svg">
<path d="M26.25 0C27.2446 0 28.1984 0.395088 28.9016 1.09835C29.6049 1.80161 30 2.75544 30 3.75V26.25C30 27.2446 29.6049 28.1984 28.9016 28.9016C28.1984 29.6049 27.2446 30 26.25 30H3.75C2.75544 30 1.80161 29.6049 1.09835 28.9016C0.395088 28.1984 0 27.2446 0 26.25V3.75C0 2.75544 0.395088 1.80161 1.09835 1.09835C1.80161 0.395088 2.75544 0 3.75 0L26.25 0ZM11.07 20.2556L18.75 12.5756V17.7656C18.75 18.0143 18.8488 18.2527 19.0246 18.4285C19.2004 18.6044 19.4389 18.7031 19.6875 18.7031C19.9361 18.7031 20.1746 18.6044 20.3504 18.4285C20.5262 18.2527 20.625 18.0143 20.625 17.7656V10.3125C20.625 10.0639 20.5262 9.8254 20.3504 9.64959C20.1746 9.47377 19.9361 9.375 19.6875 9.375H12.2344C11.9857 9.375 11.7473 9.47377 11.5715 9.64959C11.3956 9.8254 11.2969 10.0639 11.2969 10.3125C11.2969 10.5611 11.3956 10.7996 11.5715 10.9754C11.7473 11.1512 11.9857 11.25 12.2344 11.25H17.4244L9.74438 18.93C9.5736 19.1068 9.47911 19.3436 9.48124 19.5894C9.48338 19.8352 9.58197 20.0704 9.7558 20.2442C9.92962 20.418 10.1648 20.5166 10.4106 20.5188C10.6564 20.5209 10.8932 20.4264 11.07 20.2556Z" fill="#465461"/>
</svg>
